<svg id="Layer_1" data-name="Layer 1" xmlns="http://www.w3.org/2000/svg" viewBox="0 0 221.3 117"><title>India Post logo - Brandlogos.net</title><g id="g1256"><g id="g853"><g id="_b02925ff" data-name="#b02925ff"><path id="path6" d="M336.13,275h1.47a7.69,7.69,0,0,1,1.07.4,4.06,4.06,0,0,1,1.72,1.73,6.14,6.14,0,0,1,.44,3.47h14.93c0,.25,0,.5,0,.76h-2.9c0,3.83,0,7.66,0,11.49a.83.83,0,0,0,.52.93,9.5,9.5,0,0,0,1.16,0c0,.25,0,.5,0,.74h-5a4.92,4.92,0,0,1,0-.75,7.37,7.37,0,0,0,1.12,0,.79.79,0,0,0,.54-.71,10.24,10.24,0,0,0,0-1.65A7.23,7.23,0,0,1,348,293a3.39,3.39,0,0,1-2.56-.48,6.17,6.17,0,0,1-2.07-2.52,4.39,4.39,0,0,0-1.64-1.91,5.52,5.52,0,0,1,.34-.82,3.72,3.72,0,0,0,4.26.29,2.33,2.33,0,0,0,1-1.78,6.26,6.26,0,0,0-.16-2.64,2.74,2.74,0,0,0-1.2-1.52,2.62,2.62,0,0,0-1.31-.27h-3.9q0,5.79,0,11.57a.77.77,0,0,0,.55.84,10.75,10.75,0,0,0,1.13,0c0,.25,0,.5,0,.74-1.67,0-3.34,0-5,0q0-.37,0-.74a5.39,5.39,0,0,0,1.24-.06c.41-.18.48-.68.49-1.07q0-5.65,0-11.31h-4.23c0,1.32,0,2.64,0,4,0,2.51,0,5,0,7.53,0,.36.09.81.49.92a7.51,7.51,0,0,0,1.2,0c0,.25,0,.49,0,.74h-5q0-.37,0-.74a9.54,9.54,0,0,0,1.12,0c.38-.07.54-.49.58-.83,0-.55,0-1.11,0-1.66a14.18,14.18,0,0,0-.18-3.17,2.55,2.55,0,0,0-.77-1.33,2.44,2.44,0,0,0-3.13-.18,3.83,3.83,0,0,0-1.1,2.72,9.41,9.41,0,0,0,.22,3,2.89,2.89,0,0,0,1.12,1.63l-.73.57a4.26,4.26,0,0,1-1.3-1,4.92,4.92,0,0,1-1.1-3.2,5,5,0,0,1,1-3.33,4,4,0,0,1,3.17-1.53,4.14,4.14,0,0,1,2.76,1q0-1.76,0-3.51a1.75,1.75,0,0,0-.48-1.37,1.15,1.15,0,0,0-.8-.21h-8.37a4.37,4.37,0,0,1,1.64,2.88,5.49,5.49,0,0,1-.87,4.27,4.35,4.35,0,0,1-3.31,1.66,8.33,8.33,0,0,0,.79,1.56,3.76,3.76,0,0,0,1.92,1.69,2.32,2.32,0,0,0,2.13-.63l.34.5a4.87,4.87,0,0,1-.78.66,3.15,3.15,0,0,1-2.64.39,4.22,4.22,0,0,1-1.84-1.26,20,20,0,0,1-1.48-2.37,6.29,6.29,0,0,0-1.31-1.36,3.14,3.14,0,0,1,.32-.92,3.33,3.33,0,0,0,3.12.81,2.3,2.3,0,0,0,1.65-1.06,6.7,6.7,0,0,0,.45-3.21,4.46,4.46,0,0,0-1-2.86,2.42,2.42,0,0,0-1.8-.77h-3.88q0,5.74,0,11.48a.87.87,0,0,0,.46.91,5.76,5.76,0,0,0,1.22,0c0,.25,0,.49,0,.74-1.67,0-3.34,0-5,0,0-.25,0-.5,0-.75a6.21,6.21,0,0,0,1.2,0c.46-.17.51-.74.52-1.16q0-4.79,0-9.58a2.4,2.4,0,0,0-.25-1.17.94.94,0,0,0-.83-.49c-1,0-1.95,0-2.92,0,0,3.83,0,7.66,0,11.49a.85.85,0,0,0,.47.91,6.51,6.51,0,0,0,1.21,0,6.46,6.46,0,0,1,0,.74c-1.67,0-3.34,0-5,0,0-.25,0-.49,0-.74a7.09,7.09,0,0,0,1.13,0,.76.76,0,0,0,.52-.63,6.32,6.32,0,0,0,0-1.11c0-1.2,0-2.39,0-3.59-.91,0-1.81,0-2.72,0q0,1,0,1.94a5.39,5.39,0,0,1-.23,1.79,1.94,1.94,0,0,1-1.42,1.18,3.92,3.92,0,0,1-2.23-.07,2.87,2.87,0,0,1-1.83-2,3.63,3.63,0,0,1,0-1.61,2.79,2.79,0,0,1,2.19-2,20.34,20.34,0,0,1,2.16-.06c-.06-.51-.07-1-.1-1.53a4.89,4.89,0,0,1-1.94.19,2.85,2.85,0,0,1-2.08-1.42,3.06,3.06,0,0,1,.27-3.25,3.13,3.13,0,0,1,2.51-1.12,2.88,2.88,0,0,1,2,.69,2.6,2.6,0,0,1,.61,1.88c0,1.52,0,3,0,4.56.91,0,1.81,0,2.72,0,0-1.52,0-3,0-4.57a1.94,1.94,0,0,0-.45-1.51c-.4-.36-1-.24-1.47-.26,0-.24,0-.49,0-.73,8.24,0,16.48,0,24.72,0a6.73,6.73,0,0,1,.31-3.2,4,4,0,0,1,3-2.4m-.66,1.13a3.41,3.41,0,0,0-1,2.15,9.33,9.33,0,0,0,0,2.33h4.76a8.65,8.65,0,0,0-.21-3.22,2.43,2.43,0,0,0-1.42-1.63,2.08,2.08,0,0,0-2.1.37M304,281a1.26,1.26,0,0,0-.79.67,3.28,3.28,0,0,0-.27,1.24,5.61,5.61,0,0,0,.22,2.08,1.33,1.33,0,0,0,.88.83,1.22,1.22,0,0,0,1-.23,2.57,2.57,0,0,0,.82-2,2.94,2.94,0,0,0-.68-2.23A1.25,1.25,0,0,0,304,281m44.05,1a4.78,4.78,0,0,1,.8,3.08,3.89,3.89,0,0,1-1.31,2.57,4.7,4.7,0,0,1-3,1.14,5.67,5.67,0,0,0,1.35,2.27,3.1,3.1,0,0,0,2,.78,5.16,5.16,0,0,0,3.23-1.3c.17-.1.1-.32.13-.48q0-3.48,0-7a2.8,2.8,0,0,0-.22-1.28,1,1,0,0,0-.86-.55c-1,0-1.91,0-2.86,0a6,6,0,0,1,.71.7m-44.15,6.14a1.64,1.64,0,0,0-.89,1.35,6.23,6.23,0,0,0,.08,2.44,1.4,1.4,0,0,0,.72.91,1.26,1.26,0,0,0,1.46-.31,3,3,0,0,0,.62-2.12,2.68,2.68,0,0,0-.74-2A1.19,1.19,0,0,0,303.91,288.21Z" transform="translate(-269 -275)" style="fill:#b02925"/><path id="path8" d="M359.49,280.61h29q0,.38,0,.76h-6.18c0,1,0,2.06,0,3.09a3.82,3.82,0,0,1,4.75.18,4.5,4.5,0,0,1,1.43,3.63,4.36,4.36,0,0,1-1.45,3.35,3.73,3.73,0,0,1-3.76.65l.38-.61a2,2,0,0,0,1.67.09,2.3,2.3,0,0,0,1.21-1.36,7.25,7.25,0,0,0,.32-2.7,5.42,5.42,0,0,0-.42-2.1,2.07,2.07,0,0,0-1.69-1.24,2,2,0,0,0-1.61.59,3.61,3.61,0,0,0-.82,2.34q0,2.82,0,5.64a.78.78,0,0,0,.56.85c.37,0,.75,0,1.12,0,0,.25,0,.5,0,.75h-5c0-.24,0-.49,0-.74a8,8,0,0,0,1.17,0,.79.79,0,0,0,.51-.66,11.16,11.16,0,0,0,0-1.4,4.13,4.13,0,0,1-2.7.79,3.75,3.75,0,0,1-3.08-2.12,5.43,5.43,0,0,1-.43-3.09,4.2,4.2,0,0,1,1.79-3,3.86,3.86,0,0,1,4.43.19c0-.68,0-1.36,0-2-.06-.5-.38-1.08-.94-1.1H373c0,3.85,0,7.71,0,11.56a.79.79,0,0,0,.53.85c.38,0,.77,0,1.16,0,0,.25,0,.5,0,.74h-5c0-.25,0-.5,0-.74.47-.05,1,.14,1.41-.18a2.19,2.19,0,0,0,.31-1.51q0-5.37,0-10.75h-3c0,1.71,0,3.42,0,5.14h-1.57a3.45,3.45,0,0,0-.23-1.73,2.1,2.1,0,0,0-1.85-1,2.31,2.31,0,0,0-1.69.49,1.88,1.88,0,0,0-.36,2.27,1.56,1.56,0,0,0,1.15.82c1.29.18,2.62,0,3.9.28a2.77,2.77,0,0,1,1.65,1.2,3.4,3.4,0,0,1,.19,3,4.54,4.54,0,0,1-3.94,2.65,5.27,5.27,0,0,1-3.91-1.22,8.64,8.64,0,0,1-2.95-5.5l.67,0a7.48,7.48,0,0,0,1.29,3.34,5.39,5.39,0,0,0,2.84,2.16,4.19,4.19,0,0,0,3-.21,3,3,0,0,0,1.48-1.7,3.31,3.31,0,0,0,0-1.87,1.79,1.79,0,0,0-1.53-1.18,29.83,29.83,0,0,1-3.53-.21,3.2,3.2,0,0,1-1.69-.94,2.13,2.13,0,0,1-.28-2.19,2.76,2.76,0,0,1,1.62-1.34,5.53,5.53,0,0,1,4.15.23,5.41,5.41,0,0,0-.16-1.86,1,1,0,0,0-.92-.65h-6.29c0-.25,0-.5,0-.75m18.18,3.86a2.39,2.39,0,0,0-1.3,1.53,8.18,8.18,0,0,0-.23,2.92,3.82,3.82,0,0,0,.84,2.34,1.94,1.94,0,0,0,2.58.22,3,3,0,0,0,1-1.87,9.47,9.47,0,0,0,0-3.07,2.73,2.73,0,0,0-1.06-1.87A2.07,2.07,0,0,0,377.67,284.47Z" transform="translate(-269 -275)" style="fill:#b02925"/><path id="path10" d="M301.51,299.79H407.92c4.52,0,9,0,13.57,0l.1,0q-5.19,3.68-10.34,7.41-7.66,5.57-15.36,11.08-3.86,2.73-7.75,5.43l-3.63,2.43a120.88,120.88,0,0,1-17,9.62,36,36,0,0,1-10,3,15.09,15.09,0,0,1-5.91-.25,10.81,10.81,0,0,1-3.93-2.12,30,30,0,0,1-2.91-3c-2.2-2.49-4.39-5-6.72-7.36a67.07,67.07,0,0,0-13.53-10.46,1.43,1.43,0,0,0-.72-.3c-3.42-.11-6.84.06-10.26.28.54.21,1.11.32,1.65.5a40.66,40.66,0,0,1,8.36,4,76.84,76.84,0,0,1,6.92,4.79,61.38,61.38,0,0,1,5,4.26,51.86,51.86,0,0,1,4.44,4.73c1.84,2.25,3.68,4.6,6.15,6.21a14.11,14.11,0,0,0,5,2.08,18.61,18.61,0,0,0,5,.29,27.19,27.19,0,0,0,6-1.15,55.83,55.83,0,0,0,8.37-3.43,130.41,130.41,0,0,0,16-9.86c7.93-5.52,15.63-11.35,23.32-17.2,4.89-3.68,9.72-7.44,14.68-11h9.51l-.09.08c-1.57,1-3.11,2.09-4.65,3.16-10.36,7.13-20.43,14.68-30.68,22-2.48,1.79-5,3.52-7.52,5.25a176.45,176.45,0,0,1-16,9.89,71.76,71.76,0,0,1-9.14,4.22,35.33,35.33,0,0,1-10.8,2.37,19.85,19.85,0,0,1-9.37-1.85,21,21,0,0,1-7-6.23c-.94-1.17-1.77-2.42-2.76-3.54a55.89,55.89,0,0,0-4.81-4.93,69.27,69.27,0,0,0-14.19-9.79,67,67,0,0,0-9.67-4.25,3.27,3.27,0,0,0-1,0c-1.38.11-2.77.18-4.15.37l-.53,0c0-4.76,0-9.52,0-14.28C301.5,301.44,301.47,300.61,301.51,299.79Z" transform="translate(-269 -275)" style="fill:#b02925"/><path id="path12" d="M428.34,306.06c2.68-2,5.36-3.92,8.1-5.81q0,2.93,0,5.86l-.19.15c-10.54,7.1-20.65,14.82-30.95,22.26-2.55,1.88-5.16,3.69-7.75,5.53-4.88,3.44-9.82,6.79-14.93,9.88-2.8,1.68-5.64,3.31-8.56,4.78a66.78,66.78,0,0,1-9.61,4.05,38.49,38.49,0,0,1-11.37,2A24.1,24.1,0,0,1,335.58,348a33.29,33.29,0,0,1-3-3.43c-.86-1.1-1.66-2.26-2.59-3.3a52.77,52.77,0,0,0-10.84-9.63,71.88,71.88,0,0,0-17-8.15,3.06,3.06,0,0,1-.7-.28c0-1.17,0-2.35,0-3.52a74.8,74.8,0,0,1,7.52,2.56,90.81,90.81,0,0,1,9.76,4.58,54.88,54.88,0,0,1,15.88,13.1c.91,1.15,1.83,2.3,2.78,3.43a22.4,22.4,0,0,0,6.7,5.17,22.11,22.11,0,0,0,4.94,1.67,24.16,24.16,0,0,0,6.38.43,32.63,32.63,0,0,0,6-1,52.1,52.1,0,0,0,9.63-3.61,130.8,130.8,0,0,0,16.73-10q7.46-5.28,14.78-10.75l.1.17,0-.18c1-.83,2.13-1.59,3.18-2.4,5.11-3.84,10.21-7.69,15.33-11.52C423.59,309.6,425.94,307.8,428.34,306.06Z" transform="translate(-269 -275)" style="fill:#b02925"/><path id="path14" d="M421.81,320.4q7.24-5.47,14.64-10.74,0,33.54,0,67.07H301.5c0-15.76,0-31.52,0-47.28a10.52,10.52,0,0,1,1.4.41,64.66,64.66,0,0,1,15.63,7.71,46.44,46.44,0,0,1,5,4,39.25,39.25,0,0,1,3.63,3.66c.75.79,1.37,1.68,2.06,2.52s1.5,1.88,2.32,2.75a29,29,0,0,0,7.25,5.68,27.62,27.62,0,0,0,9.13,3,29.37,29.37,0,0,0,6.22.27,39.06,39.06,0,0,0,6-.79,53.87,53.87,0,0,0,9.11-2.93,100.69,100.69,0,0,0,13.52-7.11c2.74-1.68,5.4-3.48,8.05-5.28s5-3.54,7.53-5.34,4.72-3.46,7.05-5.22C410.88,328.7,416.33,324.53,421.81,320.4Z" transform="translate(-269 -275)" style="fill:#b02925"/><path id="path16" d="M395.77,382c.81,0,1.63-.09,2.44-.1q0,4.24,0,8.48a1,1,0,0,0,.29.84,1.74,1.74,0,0,0,.89.12c0,.16,0,.33,0,.49h-2.12c-.07-.42-.1-.84-.18-1.25a2.58,2.58,0,0,1-1.38,1.25,2.23,2.23,0,0,1-1.79-.22,2.91,2.91,0,0,1-1.26-1.76,4.59,4.59,0,0,1,0-2.18,3.07,3.07,0,0,1,1.35-1.91,2.2,2.2,0,0,1,2.3,0,2.77,2.77,0,0,1,.83.88c0-1.18,0-2.35,0-3.53a.54.54,0,0,0-.38-.51,2.88,2.88,0,0,0-1-.09q0-.25,0-.5m-.85,4.05a1.46,1.46,0,0,0-.9,1,6.12,6.12,0,0,0-.17,2.21,2.59,2.59,0,0,0,.59,1.7,1.3,1.3,0,0,0,1.57.24,2.13,2.13,0,0,0,.92-1.21,5.37,5.37,0,0,0,.15-1.87,2.57,2.57,0,0,0-.9-1.85A1.41,1.41,0,0,0,394.92,386Z" transform="translate(-269 -275)" style="fill:#b02925"/><path id="path18" d="M401.25,381.88a.75.75,0,1,1-.06,1.45.75.75,0,0,1-.54-.75A.76.76,0,0,1,401.25,381.88Z" transform="translate(-269 -275)" style="fill:#b02925"/><path id="path20" d="M380.13,382.46q0-.25,0-.5h4.53c0,.16,0,.33,0,.5a5.39,5.39,0,0,0-1.32.08c-.25.08-.23.39-.25.61q0,3.72,0,7.44c0,.23,0,.58.28.66a7.24,7.24,0,0,0,1.29.06c0,.16,0,.33,0,.49h-4.54c0-.17,0-.33,0-.5a7.53,7.53,0,0,0,1.27,0c.3-.06.27-.43.29-.66q0-3.73,0-7.45c0-.2,0-.5-.23-.59A4.49,4.49,0,0,0,380.13,382.46Z" transform="translate(-269 -275)" style="fill:#b02925"/><path id="path22" d="M412.83,382.47a2.21,2.21,0,0,1,0-.51c1.69,0,3.37,0,5.06,0a3.94,3.94,0,0,1,2,.55,2.58,2.58,0,0,1,.48,3.85,4.05,4.05,0,0,1-2.57,1c-.68,0-1.36,0-2,0,0,1.16,0,2.32,0,3.48a.47.47,0,0,0,.47.45c.42,0,.84,0,1.26,0,0,.17,0,.33,0,.5h-4.72a2.27,2.27,0,0,1,0-.5c.39,0,.79,0,1.19,0a.42.42,0,0,0,.34-.44q0-3.89,0-7.79a.47.47,0,0,0-.28-.52,4.68,4.68,0,0,0-1.26-.07m3.06.19a1.23,1.23,0,0,0-.09.65c0,1.19,0,2.38,0,3.58.65,0,1.31,0,2,0a1.86,1.86,0,0,0,1.44-.79,3.45,3.45,0,0,0,.29-2,1.69,1.69,0,0,0-.91-1.39,4.76,4.76,0,0,0-2-.24C416.35,382.44,416,382.44,415.88,382.66Z" transform="translate(-269 -275)" style="fill:#b02925"/><path id="path24" d="M433.52,383l.42,0c.09.85,0,1.71,0,2.56h2c0,.2,0,.41,0,.62h-2c0,1.35,0,2.71,0,4.06a1,1,0,0,0,.52.93.91.91,0,0,0,1.07-.3,2.47,2.47,0,0,0,.41-1.43h.46a3.08,3.08,0,0,1-.6,1.86,1.87,1.87,0,0,1-2.55.16,1.67,1.67,0,0,1-.44-1.31c0-1.33,0-2.65,0-4h-1.08c0-.16,0-.31,0-.46a1.9,1.9,0,0,0,1.12-.63,3.52,3.52,0,0,0,.61-2Z" transform="translate(-269 -275)" style="fill:#b02925"/><path id="path26" d="M422.69,385.39a2.92,2.92,0,0,1,2.28.43,3.1,3.1,0,0,1,1.28,2.14,3.57,3.57,0,0,1-.93,3.17,3,3,0,0,1-2.42.77,2.7,2.7,0,0,1-1.77-1,3.41,3.41,0,0,1-.73-2.09,3.74,3.74,0,0,1,.47-2,2.89,2.89,0,0,1,1.82-1.36m.42.42a1.65,1.65,0,0,0-1.23,1.1,5.88,5.88,0,0,0-.23,2.29,2.76,2.76,0,0,0,.7,1.86,1.45,1.45,0,0,0,2.08-.1,3.41,3.41,0,0,0,.63-2.18,3.88,3.88,0,0,0-.51-2.39A1.5,1.5,0,0,0,423.11,385.82Z" transform="translate(-269 -275)" style="fill:#b02925"/><path id="path28" d="M427.34,386.1a2.19,2.19,0,0,1,2.3-.62,3.88,3.88,0,0,1,.86.4c.22-.17.37-.56.72-.43,0,.73.11,1.47.16,2.2h-.45a3.29,3.29,0,0,0-.58-1.15,1.89,1.89,0,0,0-2.23-.45.94.94,0,0,0-.4,1.35,2.58,2.58,0,0,0,1.59.63,4,4,0,0,1,1.9.64,1.87,1.87,0,0,1,.63,1.25,1.9,1.9,0,0,1-.77,1.45,2.49,2.49,0,0,1-1.85.53,3,3,0,0,1-1.48-.59c-.14.16-.28.33-.43.49s-.28,0-.42.06c0-.83-.1-1.65-.12-2.47h.42a4.61,4.61,0,0,0,.79,1.43,2,2,0,0,0,1.62.6,1.55,1.55,0,0,0,1.12-.46.93.93,0,0,0,0-1.24,1.39,1.39,0,0,0-.73-.33c-.65-.15-1.31-.25-1.94-.46a1.66,1.66,0,0,1-1-.9A1.85,1.85,0,0,1,427.34,386.1Z" transform="translate(-269 -275)" style="fill:#b02925"/><path id="path30" d="M385.06,385.57c.69,0,1.38-.09,2.07-.12.09.45.13.9.19,1.35a2.65,2.65,0,0,1,1.6-1.26,2.19,2.19,0,0,1,1.93.33,2.41,2.41,0,0,1,.69,1.76c0,1,0,2.08,0,3.12a.48.48,0,0,0,.24.47,2.71,2.71,0,0,0,.84.07c0,.16,0,.33,0,.49h-3.29q0-.25,0-.49c.32,0,.72.06,1-.19s.1-.35.11-.52c0-.9,0-1.81,0-2.71a1.83,1.83,0,0,0-.53-1.41,1.52,1.52,0,0,0-1.71,0,2.12,2.12,0,0,0-.9,1.72c0,.81,0,1.62,0,2.43,0,.23,0,.51.24.64a2.76,2.76,0,0,0,.86.08c0,.16,0,.33,0,.5h-3.3c0-.17,0-.33,0-.49.37,0,1,.08,1.07-.4,0-1.31,0-2.61,0-3.92a1,1,0,0,0-.21-.76c-.24-.27-.63-.2-1-.23,0-.14,0-.28,0-.42Z" transform="translate(-269 -275)" style="fill:#b02925"/><path id="path32" d="M405.75,385.47a3.71,3.71,0,0,1,2.13.16,1.57,1.57,0,0,1,1,1.37c0,1.17,0,2.34,0,3.51a.86.86,0,0,0,.33.78,1.05,1.05,0,0,0,.77-.14,3.6,3.6,0,0,1,.18.34,1.34,1.34,0,0,1-1.81.26,2.19,2.19,0,0,1-.53-.84,4.35,4.35,0,0,1-1.31.94,3.15,3.15,0,0,1-2.06-.06,1.39,1.39,0,0,1-.83-1.54,2.06,2.06,0,0,1,1.16-1.37,8.61,8.61,0,0,1,3-.83c0-.54.14-1.18-.24-1.64a1.76,1.76,0,0,0-2.36-.17c-.27.18,0,.46.09.66a.66.66,0,0,1,0,.81.77.77,0,0,1-1.24-.21,1.07,1.07,0,0,1,.12-1,2.5,2.5,0,0,1,1.66-1m-.27,3.7a1.45,1.45,0,0,0-.56,1.75.9.9,0,0,0,.87.55,2,2,0,0,0,1.79-1.23,4.64,4.64,0,0,0,.15-1.75A6.78,6.78,0,0,0,405.48,389.17Z" transform="translate(-269 -275)" style="fill:#b02925"/><path id="path34" d="M399.67,385.57c.82,0,1.64,0,2.47-.07,0,1.82,0,3.65,0,5.48.14.5.79.28,1.18.33,0,.16,0,.33,0,.49H399.8q0-.25,0-.49c.36,0,.79.1,1.09-.15s.12-.55.14-.82c0-1.18,0-2.35,0-3.53a.68.68,0,0,0-.27-.59,2,2,0,0,0-1.08-.16Q399.67,385.82,399.67,385.57Z" transform="translate(-269 -275)" style="fill:#b02925"/></g><g id="_fee801ff" data-name="#fee801ff"><path id="path37" d="M474.85,277.82c.17,0,.39-.06.54,0a1.49,1.49,0,0,1-.4.06l0,.13c-.16,0-.37,0-.46.16l-.38.08v.08c-.14,0-.3,0-.37.16s-.28,0-.32.16a.74.74,0,0,0-.39.17l-.45.1c0,.18-.2.14-.32.16s-.19.12-.29.17v.07l-.39.08c-.08.13-.24.13-.37.16l0,.08a.58.58,0,0,0-.38.15,8.23,8.23,0,0,0-1.05.51l-.27.1c-.13.09-.27.13-.39.22a.87.87,0,0,0-.34.17c-.12,0-.26,0-.32.16a2.14,2.14,0,0,0-.66.32c-.11,0-.26.05-.31.18s-.3,0-.34.16-.23,0-.25.15l-.39.09,0,.09c-.13,0-.33,0-.36.15-.36.08-.65.34-1,.44,0,.12-.2.1-.3.15l0,.07c-.35.1-.63.36-1,.44v.06c-.21.06-.38.21-.6.26l0,.07-.31.09a.58.58,0,0,1-.31.18,1.89,1.89,0,0,1-.69.32v.05a.34.34,0,0,0-.21.16.62.62,0,0,0-.34.16l-.29.11,0,.07-.38.1c0,.11-.15.14-.25.17a.93.93,0,0,1-.32.17,5.94,5.94,0,0,1-.86.48v.06l-.3.09a.58.58,0,0,1-.33.17c0,.13-.14.13-.24.15a.74.74,0,0,1-.32.17l-.29.22a1.32,1.32,0,0,0-.28.15c-.17.1-.35.18-.51.28a.76.76,0,0,1-.32.17.83.83,0,0,1-.29.16v.06c-.1,0-.25,0-.28.17l-.21,0s0,.09,0,.13-.34,0-.34.19l-.2,0c-.15.23-.47.25-.68.41l-.11.13h-.18c0,.14-.17.14-.28.18l-.12.13-.18,0a1.21,1.21,0,0,1-.5.34.79.79,0,0,1-.33.17c0,.12-.16.13-.25.16a1.52,1.52,0,0,1-.55.34,1.39,1.39,0,0,1-.22.16v0a2.17,2.17,0,0,0-.54.28.76.76,0,0,1-.36.16s0,.09,0,.12l-.21,0a3,3,0,0,1-.76.51c-.18.13-.42.2-.55.39l-.21,0s0,.1,0,.13a.46.46,0,0,0-.35.17l-.19.14a.58.58,0,0,0-.32.16l-.24.18-.25.12a1,1,0,0,1-.6.33s0,.1,0,.13h-.18V293c-.1,0-.24.06-.27.19h-.15v.14l-.34.08c-.09.22-.38.22-.51.41a.69.69,0,0,0-.31.19l-.3.1v.13l-.22,0c-.17.26-.54.3-.73.56l-.15,0a1.88,1.88,0,0,0-.34.27,1.15,1.15,0,0,0-.56.34c-.11,0-.22,0-.24.16s-.23,0-.26.17H443v.13a2.64,2.64,0,0,0-.37.11,2.07,2.07,0,0,1-.24.18.61.61,0,0,1-.32.17.81.81,0,0,1-.39.3l0,.07c-.11,0-.25,0-.29.15-.2.06-.33.26-.54.27v.06a.25.25,0,0,0-.2.17h-.15l0,.16-.28,0-.11.14a4.18,4.18,0,0,1-.78.46l-.25.28h-.18c0,.12-.13.15-.23.19a.75.75,0,0,1-.25.17,1.08,1.08,0,0,1-.17.16l-.25.16-.3.21a2,2,0,0,1-.43.28c-.16.12-.32.25-.47.37a1.48,1.48,0,0,0-.39.26c-2.74,1.88-5.42,3.84-8.1,5.81-2.4,1.74-4.76,3.54-7.14,5.31-5.12,3.83-10.21,7.69-15.33,11.52-1,.81-2.14,1.58-3.18,2.4l0,.18-.1-.17q-7.31,5.49-14.78,10.75a130.8,130.8,0,0,1-16.73,10,52.1,52.1,0,0,1-9.63,3.61,32.63,32.63,0,0,1-6,1,24.16,24.16,0,0,1-6.38-.43,22.11,22.11,0,0,1-4.94-1.67,22.4,22.4,0,0,1-6.7-5.17c-.95-1.13-1.87-2.28-2.78-3.43a54.88,54.88,0,0,0-15.88-13.1,90.81,90.81,0,0,0-9.76-4.58,74.8,74.8,0,0,0-7.52-2.56l-.13,0,0-.08c-.27,0-.54-.06-.81-.1v-.08a1.53,1.53,0,0,1-.6-.15,5.71,5.71,0,0,0-.75-.11c-.08-.18-.29-.11-.44-.14-.2-.21-.57-.12-.84-.18v-.09c-.17,0-.35,0-.52-.05v-.1c-.2,0-.49.08-.61-.14-.4,0-.8-.09-1.21-.12-.23-.24-.63,0-.89-.23l-.86-.1a4.86,4.86,0,0,0-1-.19,6.26,6.26,0,0,1,.86-.13v-.08l.84-.06,0-.09c.44,0,.87-.09,1.3-.09v-.08c.33,0,.66-.07,1-.08v-.09c.38,0,.76-.07,1.15-.08v-.08c.36,0,.71-.07,1.07-.07v-.08c.33,0,.66-.07,1-.06v-.09c.51,0,1-.08,1.51-.08a2.09,2.09,0,0,0,.43-.06c1.38-.19,2.77-.26,4.15-.37a3.27,3.27,0,0,1,1,0,67,67,0,0,1,9.67,4.25,69.27,69.27,0,0,1,14.19,9.79,55.89,55.89,0,0,1,4.81,4.93c1,1.12,1.82,2.37,2.76,3.54a21,21,0,0,0,7,6.23,19.85,19.85,0,0,0,9.37,1.85,35.33,35.33,0,0,0,10.8-2.37,71.76,71.76,0,0,0,9.14-4.22,176.45,176.45,0,0,0,16-9.89c2.52-1.74,5-3.46,7.52-5.25,10.25-7.29,20.32-14.83,30.68-22,1.54-1.07,3.08-2.13,4.65-3.16a.47.47,0,0,0,.15-.13.83.83,0,0,0,.26-.18l.16,0a3.3,3.3,0,0,1,.74-.5l.24-.17a2.31,2.31,0,0,1,.5-.32c.13-.1.28-.18.41-.28l.15,0c.1-.17.29-.24.42-.38l.15,0a2,2,0,0,0,.34-.29l.18,0,.11-.17c.13,0,.31,0,.35-.2l.21,0s0-.1,0-.14l.2,0a.61.61,0,0,1,.24-.19,1.35,1.35,0,0,1,.27-.14c0-.12.14-.13.25-.16s.14-.14.24-.17l.23-.18a1.33,1.33,0,0,1,.26-.14c.05-.11.18-.13.29-.16l.1-.15h.22s0-.11,0-.14l.22,0c0-.14.13-.15.25-.18s.14-.14.24-.16.16-.13.25-.17c.13-.26.49-.21.63-.45l.21,0s0-.1,0-.13l.22,0c.1-.18.32-.24.49-.34l.25-.17a5.54,5.54,0,0,1,.83-.47.24.24,0,0,1,.2-.17v-.06a1,1,0,0,0,.36-.14l.17-.18.23-.05c.17-.18.43-.25.58-.45l.22,0,0-.14.48-.11s0-.07,0-.1c.18-.17.5-.13.61-.36l.18,0c0-.18.3-.1.31-.3l.19,0c0-.17.19-.15.31-.18l.2-.22a1.59,1.59,0,0,0,.53-.3c.12-.23.46-.14.56-.35.1,0,.22,0,.25-.15a1.14,1.14,0,0,0,.58-.33.76.76,0,0,0,.42-.23l.17,0a.61.61,0,0,1,.24-.18c.12-.15.41-.08.45-.29l.23,0,0-.1.21-.06,0-.08a.54.54,0,0,0,.36-.16c.09,0,.2-.05.25-.16a2.11,2.11,0,0,0,.74-.41l.2,0v-.13l.21,0c.11-.08.22-.14.32-.23s.27,0,.31-.17.26-.05.33-.18l.22,0V287a.92.92,0,0,0,.62-.33l.22,0s0-.1,0-.13c.28,0,.48-.2.73-.27v-.07l.35-.08,0-.08a.66.66,0,0,0,.36-.15,3.72,3.72,0,0,0,.58-.33l.33-.11a.55.55,0,0,1,.29-.15v-.07l.34-.08V285a.61.61,0,0,0,.35-.17l.35-.1c0-.14.17-.14.28-.16v-.08l.27-.07v-.07l.44-.11c.05-.12.18-.13.29-.15V284l.34-.07v-.08a1.13,1.13,0,0,0,.62-.31,1.71,1.71,0,0,0,.63-.27v-.06l.41-.09v-.07a5.74,5.74,0,0,0,.7-.28,1,1,0,0,1,.33-.16,3.53,3.53,0,0,1,.69-.32l0-.07c.13,0,.33,0,.37-.15s.33,0,.41-.17l.35-.09a.8.8,0,0,1,.39-.18.68.68,0,0,1,.35-.17.67.67,0,0,1,.4-.15,1.39,1.39,0,0,1,.7-.32v-.07l.42-.09v-.09l.42-.08v-.08c.13,0,.28,0,.37-.15.27-.05.5-.2.77-.27a.89.89,0,0,1,.39-.17,1.34,1.34,0,0,1,.33-.16,1.27,1.27,0,0,1,.52-.15v-.08l.38-.09c.11-.13.28-.13.44-.17v-.07c.28-.07.54-.2.82-.27a1.05,1.05,0,0,1,.47-.16.81.81,0,0,0,.31-.21l.54-.09v-.08c.3,0,.54-.21.84-.25l0-.09.43,0s0-.1,0-.14l.51,0,0-.15Z" transform="translate(-269 -275)" style="fill:#fee801"/><path id="path39" d="M488.94,280.13c.46,0,.88-.27,1.35-.27,0,.2-.21.23-.35.31a1.31,1.31,0,0,1-.45.13l0,.1-.35.06v.08l-.34.08,0,.07c-.13,0-.32,0-.36.16l-.54.1,0,.07a1.41,1.41,0,0,0-.37.17l-.3,0v.12c-.17,0-.35,0-.45.16l-.42.1c-.06.15-.22.13-.35.15s-.29.13-.43.17l0,.09-.36.07v.08a2.5,2.5,0,0,1-.55.08l.21.08c-.13,0-.32,0-.35.16a8.59,8.59,0,0,0-.83.27.55.55,0,0,1-.35.14c-.08.14-.26.13-.39.18s-.24.11-.37.15l0,.08c-.11,0-.26,0-.3.15s-.37,0-.39.19l-.32,0v.13c-.33,0-.59.22-.9.26l0,.09-.36.06,0,.08-.35.07v.09c-.14,0-.32,0-.37.16s-.38,0-.39.18h-.24v.14l-.42,0v.14h-.26v.14c-.17,0-.43,0-.52.16l-.39.1,0,.08-.38.09a.44.44,0,0,1-.37.15s0,.07,0,.09-.3,0-.36.15l-.31.08v.09l-.29,0c-.06.23-.4.1-.47.31h-.18l-.1.15-.34,0s0,.09,0,.12l-.25,0v.14a3.48,3.48,0,0,0-.5.09l0,.08a2,2,0,0,0-.69.33c-.12,0-.27.05-.33.18l-.22,0v.13c-.16,0-.39,0-.45.16l-.42.11a.41.41,0,0,1-.33.16,1.89,1.89,0,0,1-.72.35.39.39,0,0,1-.23.14l0,.07c-.28,0-.5.24-.78.27-.06.16-.23.14-.36.17v.12l-.23,0a.59.59,0,0,1-.39.17c0,.14-.19.12-.3.16l0,.08-.34.09V290c-.12,0-.27,0-.28.16l-.35.09c-.08.15-.26.14-.4.18s-.2.14-.32.17-.15.13-.25.15-.22.13-.34.16-.16.13-.26.18l-.34.16v.08l-.26,0s0,.09,0,.12-.3,0-.36.16a.48.48,0,0,0-.33.17l-.22,0,0,.15-.42,0v.11a.64.64,0,0,0-.36.16c-.1,0-.21.06-.25.17s-.27,0-.33.16a.7.7,0,0,0-.32.17.58.58,0,0,0-.33.16,1.19,1.19,0,0,0-.31.16,2.23,2.23,0,0,1-.6.28c0,.14-.17.12-.28.15v.07a4,4,0,0,0-.62.31.66.66,0,0,0-.25.17,1.1,1.1,0,0,0-.57.34l-.28,0v.14c-.13,0-.31,0-.37.16l-.3.09v.07a.55.55,0,0,0-.29.16l-.26.1a4.79,4.79,0,0,1-.89.5.84.84,0,0,1-.21.16v.06c-.13,0-.32,0-.34.17a2.61,2.61,0,0,0-.53.26,1.6,1.6,0,0,0-.31.22l-.34.1c0,.11-.14.14-.23.18a.62.62,0,0,1-.33.16l-.17.17a1.25,1.25,0,0,1-.32.15.48.48,0,0,1-.26.16c-.06.13-.21.13-.32.17a.39.39,0,0,1-.22.16l0,.06-.3.1-.31.23-.46.22s0,.07,0,.1c-.25,0-.39.21-.61.29s-.34.22-.5.36-.2.07-.24.17-.21,0-.24.15a1.22,1.22,0,0,0-.57.34,1.15,1.15,0,0,0-.5.32c-.1,0-.2.06-.25.16a.61.61,0,0,0-.32.17l-.26.15-.24.17c-.09,0-.2.08-.24.18s-.21,0-.24.16-.21.06-.25.17a.61.61,0,0,0-.32.17l-.19.1a1.57,1.57,0,0,1-.25.17,2.82,2.82,0,0,0-.3.22l-.19.11a1.09,1.09,0,0,1-.32.17,1.82,1.82,0,0,1-.33.27l-.16,0c0,.12-.14.14-.24.17a1.62,1.62,0,0,1-.42.33c-.13.09-.31.13-.38.28h-.15v.09l-.22.09a3.09,3.09,0,0,1-.3.23l-.25.17-.18.1-.24.17-.31.21a.84.84,0,0,0-.18.16,1.13,1.13,0,0,0-.48.33.54.54,0,0,0-.25.17c-.1,0-.21,0-.23.16a.47.47,0,0,0-.27.14l-.17.17c-.11,0-.21.05-.24.18l-.18,0c0,.11-.13.14-.22.18a.9.9,0,0,0-.32.28h-.15v.15c-.14,0-.32,0-.36.18l-.14,0,0,.14h-.26v.15h-.26s0,.11,0,.15l-.2,0-.15.2-.17,0a1.93,1.93,0,0,1-.42.33.56.56,0,0,1-.36.16v.12a12.28,12.28,0,0,0-1,.71.81.81,0,0,0-.22.23l-.22,0V309c-.11,0-.25,0-.28.16a.43.43,0,0,0-.25.16l-.24.17-.23.17q-7.39,5.27-14.64,10.74c-5.47,4.13-10.92,8.3-16.41,12.41-2.33,1.76-4.7,3.48-7.05,5.22s-5,3.62-7.53,5.34-5.31,3.6-8.05,5.28a100.69,100.69,0,0,1-13.52,7.11,53.87,53.87,0,0,1-9.11,2.93,39.06,39.06,0,0,1-6,.79,29.37,29.37,0,0,1-6.22-.27,27.62,27.62,0,0,1-9.13-3,29,29,0,0,1-7.25-5.68c-.82-.88-1.55-1.83-2.32-2.75s-1.31-1.73-2.06-2.52a39.26,39.26,0,0,0-3.63-3.66,46.44,46.44,0,0,0-5-4,64.66,64.66,0,0,0-15.63-7.71,10.52,10.52,0,0,0-1.4-.41.81.81,0,0,0-.51-.14v-.09l-.54-.08-.08-.09a5,5,0,0,0-1.1-.24v-.12l-.51,0v-.1l-.43-.05v-.09l-.66-.09v-.09l-.67-.07v-.09l-.59-.08,0-.09a7.65,7.65,0,0,0-.82-.09s0-.09,0-.12l-.5,0v-.09c-.16,0-.35,0-.47-.14l-.85-.11v-.08l-.56-.08c-.27-.22-.69,0-.94-.25a3.32,3.32,0,0,0-.56-.07v-.09l-.74-.09v-.08l-.57-.06c-.29-.21-.72,0-1-.25-.24,0-.48-.07-.72-.08v-.08c-.36,0-.71-.09-1.06-.09l0-.09a4.26,4.26,0,0,0-.77-.07v-.1l-.83-.07v-.08c-.41,0-.82-.09-1.23-.09l0-.09a1.87,1.87,0,0,1-.78-.14c-.3,0-.59-.06-.89-.08v-.08c-.52,0-1-.11-1.54-.1V325c-.44,0-.88-.1-1.32-.07l0-.1c-.44,0-.88-.08-1.32-.07v-.1c-.42,0-.83-.08-1.24-.06v-.08c-.49,0-1-.09-1.46-.07v-.1c-.85,0-1.7-.11-2.55-.07v-.1c-.75,0-1.5-.07-2.25-.06-.16,0-.35,0-.48-.08-.6,0-1.21,0-1.81,0-.11,0-.28,0-.32-.11s.24-.1.37-.13v-.07c.32,0,.6-.23.92-.25v-.08l.43-.07v-.09l.51-.08V323c.35,0,.64-.24,1-.25l0-.09.42,0s0-.09,0-.12a3.72,3.72,0,0,0,.59-.08v-.08l.65-.1v-.09l.42,0V322l.58-.08,0-.09a3.52,3.52,0,0,0,.47-.08,2.17,2.17,0,0,1,.82-.18v-.07a.27.27,0,0,0,.23-.14c.33,0,.65-.09,1-.12.06-.13.22-.11.35-.15a2.78,2.78,0,0,1,.79-.18c.17-.17.42-.12.64-.14l0-.09.52-.06v-.08l.79-.1c.2-.18.51-.11.76-.17v-.08c.22,0,.5,0,.67-.16s.59,0,.83-.17l.48-.06,0-.09a7.07,7.07,0,0,0,.77-.07l0-.08a2.43,2.43,0,0,0,.64-.08c.08-.1.2-.07.31-.09l.82-.09c.19-.24.52-.07.78-.09v.08c.4,0,.8.1,1.2.11v.1c.22,0,.45,0,.67.05v.09l.6.07,0,.08c.28,0,.55.05.83.09V320l.6,0s0,.09,0,.12c.35,0,.7.09,1,.11v.09c.24,0,.49.07.73.09,0,0,0,.07,0,.09l.36,0v.08c.3,0,.6.07.89.1l0,.09.59.07V321l.74.09v.12l.66,0v.13l.51,0,0,.1h.28s0,.09,0,.13c.33,0,.64.09,1,.11v.09a4.23,4.23,0,0,0,.52.06l0,.09.58.09,0,.09.36.05v.08l.77.11c.07.22.35.12.53.16v.13l.43,0,0,.11.58.07V323l.5,0s0,.09,0,.12l.44.07a3.06,3.06,0,0,0,.7.28,71.88,71.88,0,0,1,17,8.15A52.77,52.77,0,0,1,330,341.27c.93,1,1.73,2.2,2.59,3.3a33.29,33.29,0,0,0,3,3.43,24.1,24.1,0,0,0,17.49,6.79,38.49,38.49,0,0,0,11.37-2,66.78,66.78,0,0,0,9.61-4.05c2.92-1.47,5.76-3.09,8.56-4.78,5.11-3.09,10.05-6.44,14.93-9.88,2.59-1.84,5.19-3.64,7.75-5.53,10.3-7.44,20.41-15.16,30.95-22.26l.19-.15.12-.11c.11,0,.24,0,.26-.17l.14,0v-.14c.13,0,.32,0,.35-.19h.15v-.14l.41-.1v-.08a1.18,1.18,0,0,0,.45-.33l.22,0s0-.11,0-.14h.18l0-.13.38-.11.28-.24.3-.1V304l.25,0v-.12a.89.89,0,0,0,.41-.22c.19-.12.38-.23.56-.36s.18-.08.23-.17a1.26,1.26,0,0,0,.48-.35c.11,0,.24,0,.25-.16l.3-.09.2-.25.22,0s0-.11,0-.14h.22l.11-.14c.2-.07.36-.22.57-.28v-.08h.18s0-.1,0-.14l.24,0s0-.1,0-.13.32,0,.34-.17a.33.33,0,0,0,.26-.17l.3-.09v-.07c.14-.12.36-.15.45-.33s.29,0,.32-.16c.29-.12.55-.31.83-.44a.42.42,0,0,1,.36-.16s0-.1,0-.13h.18v-.08l.27-.16a3,3,0,0,1,.55-.28v-.08h.19v-.15h.26v-.14c.13,0,.34,0,.35-.17l.23,0s0-.1,0-.13.31,0,.35-.16c.38-.19.76-.4,1.14-.6l0-.06c.11,0,.26,0,.27-.17s.32,0,.32-.19h.16V297l.41-.1v-.07c.15-.11.35-.16.45-.33s.29,0,.31-.16c.28-.11.53-.3.81-.43v-.08H453v-.13c.13,0,.33,0,.35-.17.12,0,.29,0,.33-.16a.86.86,0,0,0,.33-.16.6.6,0,0,0,.26-.17l.25-.1c.16-.17.44-.19.56-.4l.22,0v-.15h.26v-.14c.15,0,.4,0,.42-.18.11,0,.23,0,.27-.15a.76.76,0,0,0,.4-.17,2.69,2.69,0,0,1,.53-.26c0-.14.22-.11.34-.15s0-.06,0-.08.23-.05.29-.16l.29-.09v-.07c.1,0,.25,0,.27-.17l.38-.09,0-.09.41-.1v-.12l.3,0a.21.21,0,0,1,.22-.16l0-.07L460,292l0-.08a.56.56,0,0,0,.36-.17l.23,0v-.12c.13,0,.34,0,.35-.16.11,0,.3,0,.34-.15s.28,0,.33-.17.3,0,.32-.17l.3,0v-.12c.12,0,.33,0,.35-.17a.55.55,0,0,0,.42-.16c.1,0,.21,0,.25-.16l.46-.1,0-.08.37-.1c.07-.14.23-.14.36-.17v-.06a1.77,1.77,0,0,1,.64-.26c.06-.13.22-.12.34-.17a6.88,6.88,0,0,0,.72-.39c.11-.05.3,0,.32-.18l.3,0v-.14l.34,0s0-.1,0-.13l.42,0v-.14l.34,0v-.13a2.9,2.9,0,0,0,.89-.27v-.07a1.78,1.78,0,0,0,.7-.32c.11,0,.27,0,.33-.15a1.14,1.14,0,0,0,.44-.17c.11,0,.26,0,.26-.18h.4v-.13l.43-.08,0-.09c.27,0,.48-.19.74-.22v-.1c.13,0,.31,0,.36-.16l.38,0V286a2.67,2.67,0,0,0,.91-.27v-.07c.12,0,.33,0,.36-.17l.38,0v-.12c.16,0,.37,0,.45-.16l.4-.08,0-.09a.8.8,0,0,0,.52-.16c.11-.05.3,0,.34-.16s.36,0,.41-.16l.43-.09c.05-.15.24-.09.36-.13s0-.08,0-.1l.57-.1,0-.08.39-.08a.61.61,0,0,1,.37-.16v-.07l.62-.11c0-.19.24-.12.37-.14l0-.09c.19-.07.49,0,.61-.21l.35,0c0-.2.23-.13.37-.15l0-.1.49-.08v-.09l.43-.07,0-.09.43-.07s0-.07,0-.09l.42-.07v-.09l.41,0s0-.08,0-.11l.56-.08v-.09l.49-.08v-.08l.44-.08,0-.09.62-.1c.09-.2.34-.13.52-.16v-.08l.39-.09a1.08,1.08,0,0,1,.53-.14l0-.08.58-.09v-.09l.42-.06s0-.07,0-.1l.5-.07,0-.09c.38,0,.71-.21,1.08-.23,0,0,0-.07,0-.09Z" transform="translate(-269 -275)" style="fill:#fee801"/><path id="path41" d="M450.75,281.18c.16-.15.41-.49.63-.21a2.87,2.87,0,0,1-.5.25c0,.15-.16.14-.27.17s0,.1,0,.14h-.26l0,.14c-.11,0-.24,0-.29.15a1.78,1.78,0,0,0-.25.16.56.56,0,0,0-.24.18l-.21.1c-.25.19-.53.33-.77.55l-.25.16a2.67,2.67,0,0,0-.48.33,3.25,3.25,0,0,0-.44.27l-.3.22-.23.16a1.7,1.7,0,0,1-.48.28v.06c-.25.13-.46.31-.7.44a.71.71,0,0,1-.28.16v0a.36.36,0,0,0-.2.18l-.16,0-.32.3-.3.1v.15h-.22l-.2.24a.89.89,0,0,0-.27.15l-.24.16c-.25.16-.49.33-.74.5l-.2.11-.23.17-.23.2a1.75,1.75,0,0,0-.49.33.82.82,0,0,0-.25.16l-.22.17L441,288a.5.5,0,0,1-.35.18s0,.1,0,.14h-.17s0,.12,0,.16h-.22c0,.15-.16.15-.27.18s0,.09,0,.13l-.25,0s0,.11,0,.14l-.2,0a1.77,1.77,0,0,1-.46.38l-.19.08a1.56,1.56,0,0,1-.24.24.9.9,0,0,0-.35.22l-.16,0c0,.12-.14.14-.23.17l-.17.18c-.13.09-.34.11-.4.28h-.14v.07a2.31,2.31,0,0,0-.44.32l-.25.17-.25.17-.16.16c-.1,0-.21.06-.24.18l-.16,0c-.23.22-.52.36-.76.56a1.09,1.09,0,0,1-.31.17c-.15.23-.44.29-.58.52-.1,0-.21.06-.24.18l-.16,0a.57.57,0,0,1-.3.18s0,.08,0,.1a.9.9,0,0,0-.52.32.42.42,0,0,0-.24.17l-.21.11-.1.12a2.6,2.6,0,0,0-.35.22,1.38,1.38,0,0,1-.5.32c0,.13-.13.15-.23.17a2,2,0,0,1-.65.49.76.76,0,0,1-.25.17,1.4,1.4,0,0,0-.33.29h-.17c0,.14-.16.16-.27.19v.13h-.14c0,.13-.14.15-.24.18a1.43,1.43,0,0,1-.42.33l-.24.16a.58.58,0,0,1-.28.16l-.2.21a.66.66,0,0,0-.41.34h-.22s0,.1,0,.14c-.23,0-.34.25-.57.28,0,0,0,.1,0,.13l-.24,0s0,.1,0,.14h-.17l0,.11h-.15a.23.23,0,0,1-.2.18v.12h-.24v.13c-.17,0-.28.16-.42.24a4.64,4.64,0,0,0-.68.5l-.14,0-.17.17c-5,3.6-9.79,7.36-14.68,11-7.69,5.85-15.39,11.68-23.32,17.2a130.41,130.41,0,0,1-16,9.86,55.83,55.83,0,0,1-8.37,3.43,27.19,27.19,0,0,1-6,1.15,18.61,18.61,0,0,1-5-.29,14.11,14.11,0,0,1-5-2.08c-2.47-1.61-4.3-4-6.15-6.21a51.86,51.86,0,0,0-4.44-4.73,61.38,61.38,0,0,0-5-4.26,76.84,76.84,0,0,0-6.92-4.79,40.66,40.66,0,0,0-8.36-4c-.55-.19-1.12-.3-1.65-.5,3.41-.22,6.84-.39,10.26-.28a1.43,1.43,0,0,1,.72.3A67.07,67.07,0,0,1,338,326.08c2.33,2.37,4.52,4.86,6.72,7.36a30,30,0,0,0,2.91,3,10.81,10.81,0,0,0,3.93,2.12,15.09,15.09,0,0,0,5.91.25,36,36,0,0,0,10-3,120.88,120.88,0,0,0,17-9.62l3.63-2.43q3.9-2.68,7.75-5.43,7.69-5.52,15.36-11.08,5.15-3.73,10.34-7.41l-.1,0h-.05c.14,0,.36,0,.4-.18H422l0-.13a.57.57,0,0,0,.45-.24l.2,0V299l.22,0c0-.13.13-.15.24-.18l.14-.21.27-.1c0-.11.14-.14.24-.17s.3-.2.42-.33l.25-.16a.7.7,0,0,1,.26-.17v-.05a.22.22,0,0,0,.2-.17l.21,0v-.12c.1,0,.25,0,.28-.17l.14,0,0-.14c.14,0,.33,0,.36-.19H426s0-.11,0-.14l.37-.11c0-.12.12-.15.23-.18l.17-.17a.89.89,0,0,0,.33-.25l.18-.05.22-.18.33-.28.15,0c0-.11.14-.14.24-.17l.17-.17a.87.87,0,0,1,.29-.15v-.06a.87.87,0,0,0,.38-.23l.15,0a.47.47,0,0,1,.17-.18l.25-.16a3.14,3.14,0,0,0,.3-.23l.14,0s0-.09,0-.12a.67.67,0,0,0,.35-.17l.17-.12a.68.68,0,0,1,.28-.16v-.07l.19,0v-.14l.19,0v-.16l.25,0v-.14l.26,0v-.13a.62.62,0,0,0,.42-.18l.19-.1c0-.11.15-.13.25-.16l.31-.24H433v-.14l.2,0a1.45,1.45,0,0,1,.4-.29l.25-.16a1.16,1.16,0,0,1,.54-.29s0-.09,0-.12l.14,0a3,3,0,0,1,.3-.25l.27-.09c0-.11.14-.14.24-.17a1.57,1.57,0,0,1,.43-.32l.3-.21a.71.71,0,0,0,.24-.19l.15,0c.11-.1.23-.18.34-.28s.2-.07.23-.19h.15v-.14c.15,0,.4,0,.42-.2h.12c0-.18.24-.15.32-.29s.25-.05.31-.17a4.86,4.86,0,0,0,.66-.39c.1,0,.21-.06.23-.18l.22,0v-.14l.22,0c0-.14.15-.15.27-.18v-.06a5,5,0,0,0,.52-.33,3.33,3.33,0,0,1,.45-.27l.3-.22a5.64,5.64,0,0,0,.81-.49,6.17,6.17,0,0,0,.83-.49l.22-.17.29-.1a.89.89,0,0,1,.45-.28s0-.08,0-.1a5.44,5.44,0,0,0,1.15-.6v-.06a.45.45,0,0,0,.28-.16l.36-.12v0l.21-.16.27-.12.4-.28.17,0a1,1,0,0,1,.28-.25l.18,0a1.63,1.63,0,0,1,.35-.22,1.56,1.56,0,0,0,.3-.23l.35-.1c.1-.18.32-.23.49-.33a.9.9,0,0,1,.33-.16c0-.11.15-.13.25-.17a1.75,1.75,0,0,0,.55-.37c.11-.05.27,0,.33-.17s.25,0,.33-.15l.16-.1h.18Z" transform="translate(-269 -275)" style="fill:#fee801"/></g></g></g></svg>